<svg viewBox="0 0 100 80" xmlns="http://www.w3.org/2000/svg" fill="currentColor">\n  <rect x="18" y="38" width="14" height="8" rx="2" />\n  <rect x="6" y="40" width="38" height="2" />\n  <rect x="4" y="36" width="12" height="4" rx="1" />\n  <rect x="34" y="36" width="12" height="4" rx="1" />\n  <polygon points="20,46 16,56 12,56 14,58 20,58 24,46" />\n  <polygon points="30,46 34,56 38,56 36,58 30,58 26,46" />\n  <polygon points="56,22 60,18 94,54 90,58" />\n  <polygon points="90,18 94,22 60,58 56,54" />\n  <circle cx="75" cy="40" r="8" />\n  <circle cx="58" cy="20" r="8" />\n  <circle cx="92" cy="20" r="8" />\n  <circle cx="58" cy="60" r="8" />\n  <circle cx="92" cy="60" r="8" />\n</svg>
