<svg viewBox="0 0 100 80" xmlns="http://www.w3.org/2000/svg" fill="currentColor">\n  <rect x="18" y="38" width="14" height="10" rx="3" />\n  <rect x="5" y="41" width="40" height="2" />\n  <rect x="5" y="37" width="8" height="4" rx="1" />\n  <rect x="15" y="37" width="8" height="4" rx="1" />\n  <rect x="27" y="37" width="8" height="4" rx="1" />\n  <rect x="37" y="37" width="8" height="4" rx="1" />\n  <polygon points="20,48 16,58 12,58 14,60 20,60 24,48" />\n  <polygon points="30,48 34,58 38,58 36,60 30,60 26,48" />\n  <rect x="74" y="22" width="2" height="36" />\n  <rect x="57" y="39" width="36" height="2" />\n  <polygon points="61,28 63,26 89,52 87,54" />\n  <polygon points="87,26 89,24 63,54 61,52" />\n  <circle cx="75" cy="40" r="9" />\n  <circle cx="75" cy="22" r="5.5" />\n  <circle cx="88" cy="27" r="5.5" />\n  <circle cx="93" cy="40" r="5.5" />\n  <circle cx="88" cy="53" r="5.5" />\n  <circle cx="75" cy="58" r="5.5" />\n  <circle cx="62" cy="53" r="5.5" />\n  <circle cx="57" cy="40" r="5.5" />\n  <circle cx="62" cy="27" r="5.5" />\n</svg>
